HIERARCHY
ROOT hip
{
	OFFSET 0.000000 0.000000 0.000000
	CHANNELS 6 Xposition Yposition Zposition Xrotation Zrotation Yrotation 
	JOINT abdomen
	{
		OFFSET 0.000000 3.422050 0.000000
		CHANNELS 3 Xrotation Zrotation Yrotation 
		JOINT chest
		{
			OFFSET 0.000000 8.486693 -0.684411
			CHANNELS 3 Xrotation Zrotation Yrotation 
			JOINT neck
			{
				OFFSET 0.000000 10.266162 -0.273764
				CHANNELS 3 Xrotation Zrotation Yrotation 
				JOINT head
				{
					OFFSET 0.000000 3.148285 0.000000
					CHANNELS 3 Xrotation Zrotation Yrotation 
					End Site
					{
						OFFSET 0.000000 3.148289 0.000000
					}
				}
			}
			JOINT lCollar
			{
				OFFSET 3.422053 6.707223 -0.821293
				CHANNELS 3 Yrotation Zrotation Xrotation 
				JOINT lShldr
				{
					OFFSET 3.285171 0.000000 0.000000
					CHANNELS 3 Zrotation Yrotation Xrotation 
					JOINT lForeArm
					{
						OFFSET 10.129278 0.000000 0.000000
						CHANNELS 3 Yrotation Zrotation Xrotation 
						JOINT lHand
						{
							OFFSET 8.486692 0.000000 0.000000
							CHANNELS 3 Zrotation Yrotation Xrotation 
							End Site
							{
								OFFSET 4.106464 0.000000 0.000000
							}
						}
					}
				}
			}
			JOINT rCollar
			{
				OFFSET -3.558935 6.707223 -0.821293
				CHANNELS 3 Yrotation Zrotation Xrotation 
				JOINT rShldr
				{
					OFFSET -3.148289 0.000000 0.000000
					CHANNELS 3 Zrotation Yrotation Xrotation 
					JOINT rForeArm
					{
						OFFSET -10.266159 0.000000 0.000000
						CHANNELS 3 Yrotation Zrotation Xrotation 
						JOINT rHand
						{
							OFFSET -8.349810 0.000000 0.000000
							CHANNELS 3 Zrotation Yrotation Xrotation 
							End Site
							{
								OFFSET -4.106464 0.000000 0.000000
							}
						}
					}
				}
			}
		}
	}
	JOINT lThigh
	{
		OFFSET 5.338403 -1.642589 1.368821
		CHANNELS 3 Xrotation Zrotation Yrotation 
		JOINT lShin
		{
			OFFSET -2.053232 -20.121670 0.000000
			CHANNELS 3 Xrotation Zrotation Yrotation 
			JOINT lFoot
			{
				OFFSET 0.000000 -19.300380 -1.231939
				CHANNELS 3 Xrotation Yrotation Zrotation 
				End Site
				{
					OFFSET 0.000000 -2.463878 4.653993
				}
			}
		}
	}
	JOINT rThigh
	{
		OFFSET -5.338403 -1.642589 1.368821
		CHANNELS 3 Xrotation Zrotation Yrotation 
		JOINT rShin
		{
			OFFSET 2.053232 -20.121670 0.000000
			CHANNELS 3 Xrotation Zrotation Yrotation 
			JOINT rFoot
			{
				OFFSET 0.000000 -19.300380 -1.231939
				CHANNELS 3 Xrotation Yrotation Zrotation 
				End Site
				{
					OFFSET 0.000000 -2.463878 4.653993
				}
			}
		}
	}
}
MOTION
Frames: 11
Frame Time: 0.076905
-9.482808 4.585022 15.700528 89.996109 18.005964 129.986893 36.234222 -16.496490 -8.529134 10.399525 -8.703412 -14.477643 -8.393995 -27.180180 7.939036 -8.401437 -0.850843 29.276312 -14.341081 -26.144627 9.063913 -43.988548 -5.780517 -78.051254 -132.885986 -47.795204 -129.078384 -11.894864 20.505861 -55.237858 7.911842 -1.064651 2.005606 8.044358 13.893221 32.154495 16.601442 -18.118715 -3.758502 -9.330309 21.510170 10.059771 -43.757511 66.417809 50.235161 83.422249 10.718026 -0.005715 42.861172 -26.184824 24.848986 -32.616856 -24.119810 -25.348585 61.711033 -1.163134 -0.102159 15.472386 7.451619 5.334327 
-9.482808 4.585022 15.700528 89.996109 18.005964 129.986893 35.934376 -16.496460 -8.529245 10.399525 -8.703412 -14.477643 -7.994049 -27.180067 7.938976 -8.051452 -0.850800 29.276207 -14.281518 -25.941696 9.004425 -44.037804 -5.771190 -78.038628 -133.329086 -47.738224 -129.408722 -11.601508 20.330902 -55.229645 8.200843 -1.095602 1.981344 8.044358 13.893221 32.154495 16.601442 -18.118715 -3.758502 -9.330309 21.510170 10.059771 -43.757511 66.417809 50.235161 83.422249 10.718026 -0.005715 42.861172 -26.184824 24.848986 -32.695065 -23.998655 -25.092037 61.711033 -1.163134 -0.102159 15.476464 7.268719 5.537413 
-9.482808 4.585022 15.700528 89.996109 18.005964 129.986893 35.634510 -16.496441 -8.529362 10.399525 -8.703413 -14.477643 -7.594027 -27.179960 7.938918 -7.701417 -0.850756 29.276108 -14.221810 -25.738798 8.944800 -44.087059 -5.761853 -78.026016 -133.771255 -47.679520 -129.738052 -11.308474 20.155890 -55.222416 8.489860 -1.126678 1.957234 8.044358 13.893221 32.154495 16.601442 -18.118715 -3.758502 -9.330309 21.510170 10.059771 -43.757511 66.417809 50.235161 83.422249 10.718026 -0.005715 42.861172 -26.184824 24.848986 -32.772614 -23.877176 -24.835901 61.711033 -1.163134 -0.102159 15.481186 7.085817 5.740448 
-9.482808 4.585022 15.700528 89.996109 18.005964 129.986893 35.334606 -16.496414 -8.529474 10.399525 -8.703412 -14.477643 -7.193936 -27.179852 7.938859 -7.351337 -0.850711 29.276011 -14.161973 -25.535952 8.885040 -44.136314 -5.752504 -78.013397 -134.212463 -47.619106 -130.066360 -11.015752 19.980822 -55.216133 8.778895 -1.157879 1.933280 8.044358 13.893221 32.154495 16.601442 -18.118715 -3.758502 -9.330309 21.510170 10.059771 -43.757511 66.417809 50.235161 83.422249 10.718026 -0.005715 42.861172 -26.184824 24.848986 -32.849503 -23.755367 -24.580166 61.711033 -1.163134 -0.102159 15.486565 6.902919 5.943437 
-9.482808 4.585022 15.700528 89.996109 18.005964 129.986893 35.034687 -16.496395 -8.529592 10.399525 -8.703412 -14.477643 -6.793789 -27.179747 7.938803 -7.001217 -0.850666 29.275906 -14.101995 -25.333147 8.825142 -44.185555 -5.743145 -78.000793 -134.652679 -47.556999 -130.393631 -10.723344 19.805706 -55.210815 9.067944 -1.189202 1.909480 8.044358 13.893221 32.154495 16.601442 -18.118715 -3.758502 -9.330309 21.510170 10.059771 -43.757511 66.417809 50.235161 83.422249 10.718026 -0.005715 42.861172 -26.184824 24.848986 -32.925728 -23.633238 -24.324823 61.711033 -1.163134 -0.102159 15.492590 6.720028 6.146378 
-9.482808 4.585022 15.700528 89.996109 18.005964 129.986893 34.734745 -16.496372 -8.529707 10.399524 -8.703411 -14.477641 -6.393591 -27.179636 7.938747 -6.651063 -0.850620 29.275806 -14.041883 -25.130396 8.765109 -44.234806 -5.733774 -77.988205 -135.091843 -47.493183 -130.719803 -10.431251 19.630560 -55.206459 9.357003 -1.220648 1.885839 8.044358 13.893221 32.154495 16.601442 -18.118715 -3.758502 -9.330309 21.510170 10.059771 -43.757511 66.417809 50.235161 83.422249 10.718026 -0.005715 42.861172 -26.184824 24.848986 -33.001293 -23.510792 -24.069887 61.711033 -1.163134 -0.102159 15.499266 6.537148 6.349275 
-9.482808 4.585022 15.700528 89.996109 18.005964 129.986893 34.434780 -16.496349 -8.529821 10.399525 -8.703412 -14.477643 -5.993357 -27.179527 7.938692 -6.300886 -0.850574 29.275715 -13.981636 -24.927691 8.704937 -44.284054 -5.724391 -77.975609 -135.529953 -47.427685 -131.044846 -10.139462 19.455372 -55.203045 9.646063 -1.252213 1.862353 8.044358 13.893221 32.154495 16.601442 -18.118715 -3.758502 -9.330309 21.510170 10.059771 -43.757511 66.417809 50.235161 83.422249 10.718026 -0.005715 42.861172 -26.184824 24.848986 -33.076195 -23.388035 -23.815351 61.711033 -1.163134 -0.102159 15.506594 6.354286 6.552131 
-9.482808 4.585022 15.700528 89.996109 18.005964 129.986893 34.134815 -16.496332 -8.529938 10.399524 -8.703411 -14.477641 -5.593091 -27.179415 7.938636 -5.950687 -0.850527 29.275612 -13.921250 -24.725044 8.644629 -44.333298 -5.715000 -77.963036 -135.966980 -47.360500 -131.368759 -9.847984 19.280161 -55.200573 9.935128 -1.283898 1.839027 8.044358 13.893221 32.154495 16.601442 -18.118715 -3.758502 -9.330309 21.510170 10.059771 -43.757511 66.417809 50.235161 83.422249 10.718026 -0.005715 42.861172 -26.184824 24.848986 -33.150444 -23.264977 -23.561220 61.711033 -1.163134 -0.102159 15.514570 6.171444 6.754943 
-9.482808 4.585022 15.700528 89.996109 18.005964 129.986893 33.834827 -16.496313 -8.530052 10.399525 -8.703412 -14.477643 -5.192809 -27.179310 7.938585 -5.600473 -0.850479 29.275505 -13.860724 -24.522448 8.584181 -44.382534 -5.705600 -77.950478 -136.402893 -47.291660 -131.691483 -9.556816 19.104939 -55.199051 10.224192 -1.315701 1.815859 8.044358 13.893221 32.154495 16.601442 -18.118715 -3.758502 -9.330309 21.510170 10.059771 -43.757511 66.417809 50.235161 83.422249 10.718026 -0.005715 42.861172 -26.184824 24.848986 -33.224022 -23.141605 -23.307486 61.711033 -1.163134 -0.102159 15.523196 5.988628 6.957720 
-9.482808 4.585022 15.700528 89.996109 18.005964 129.986893 33.534847 -16.496292 -8.530169 10.399525 -8.703413 -14.477643 -4.792515 -27.179199 7.938532 -5.250256 -0.850431 29.275410 -13.800063 -24.319910 8.523597 -44.431770 -5.696185 -77.937912 -136.837662 -47.221146 -132.013031 -9.265954 18.929708 -55.198486 10.513250 -1.347621 1.792853 8.044358 13.893221 32.154495 16.601442 -18.118715 -3.758502 -9.330309 21.510170 10.059771 -43.757511 66.417809 50.235161 83.422249 10.718026 -0.005715 42.861172 -26.184824 24.848986 -33.296947 -23.017941 -23.054161 61.711033 -1.163134 -0.102159 15.532463 5.805840 7.160458 
-9.482808 4.585022 15.700528 89.996109 18.005964 129.986893 33.234859 -16.496271 -8.530283 10.399525 -8.703412 -14.477643 -4.392223 -27.179090 7.938480 -4.900037 -0.850382 29.275311 -13.739263 -24.117430 8.462870 -44.481003 -5.686763 -77.925354 -137.271255 -47.148968 -132.333344 -8.975399 18.754480 -55.198853 10.802298 -1.379657 1.770007 8.044358 13.893221 32.154495 16.601442 -18.118715 -3.758502 -9.330309 21.510170 10.059771 -43.757511 66.417809 50.235161 83.422249 10.718026 -0.005715 42.861172 -26.184824 24.848986 -33.369202 -22.893976 -22.801233 61.711033 -1.163134 -0.102159 15.542384 5.623085 7.363162 
